# xmcd
#
# Track frame offsets: 
#        150
#        12530
#        23067
#        35230
#        51645
#        65342
#        84427
#        98337
#        110052
#        121162
#        138822
#        151810
#
# Disc length: 2212 seconds
#
# Revision: 0
# Processed by: cddbd v1.4PL0 Copyright (c) Steve Scherf et al.
# Submitted via: ExactAudioCopy v0.90b4
#
DISCID=9708a20c
DTITLE=The Karl Shiflett And Big Country Show - Worries On My Mind
DYEAR=2003
DGENRE=Country
TTITLE0=Worries On My Mind
TTITLE1=Turn Around
TTITLE2=If I Could Take You Home
TTITLE3=Bobo's Boogie
TTITLE4=How Wrong A Man Can Be
TTITLE5=I Still Miss Someone
TTITLE6=Truck Driving Man
TTITLE7=I Live In The Past
TTITLE8=Hoss Fly
TTITLE9=I Wish I Was Him
TTITLE10=Each Night I Dream Of A Lady
TTITLE11=Oh Lord, I Pray
EXTD=
EXTT0=
EXTT1=
EXTT2=
EXTT3=
EXTT4=
EXTT5=
EXTT6=
EXTT7=
EXTT8=
EXTT9=
EXTT10=
EXTT11=
PLAYORDER=
